<svg width="1511" height="597" viewBox="0 0 1511 597" fill="none" xmlns="http://www.w3.org/2000/svg">
<mask id="path-1-outside-1_117_1570" maskUnits="userSpaceOnUse" x="205" y="310" width="703" height="132" fill="black">
<rect fill="white" x="205" y="310" width="703" height="132"/>
<path d="M255.108 441C246.082 441 237.267 439.724 228.662 437.171C220.118 434.559 212.897 430.849 207 426.041L218.373 408.5C221.261 411.112 224.721 413.368 228.752 415.267C232.784 417.167 237.056 418.651 241.569 419.719C246.142 420.728 250.685 421.233 255.198 421.233C262.719 421.233 268.827 419.868 273.52 417.137C278.214 414.347 280.56 410.34 280.56 405.116C280.56 401.021 278.936 397.607 275.686 394.877C272.437 392.087 266.45 389.475 257.725 387.041L245.45 383.568C233.115 380.126 224.179 375.525 218.643 369.767C213.168 363.95 210.43 356.826 210.43 348.397C210.43 342.877 211.573 337.831 213.86 333.26C216.146 328.689 219.365 324.742 223.517 321.418C227.729 318.094 232.693 315.541 238.41 313.76C244.126 311.979 250.354 311.089 257.093 311.089C265.939 311.089 274.152 312.365 281.734 314.918C289.315 317.411 295.513 320.824 300.327 325.158L288.684 342.164C286.156 339.849 283.178 337.831 279.748 336.11C276.318 334.388 272.618 333.082 268.646 332.192C264.675 331.242 260.674 330.767 256.642 330.767C251.888 330.767 247.737 331.42 244.186 332.726C240.636 334.032 237.868 335.902 235.883 338.336C233.897 340.769 232.904 343.737 232.904 347.24C232.904 349.792 233.566 352.018 234.89 353.918C236.274 355.817 238.62 357.568 241.93 359.171C245.239 360.715 249.812 362.347 255.649 364.068L268.466 367.808C280.56 371.311 289.376 375.822 294.911 381.342C300.447 386.804 303.215 393.927 303.215 402.712C303.215 410.251 301.29 416.9 297.439 422.658C293.588 428.416 288.052 432.927 280.831 436.192C273.671 439.397 265.096 441 255.108 441Z"/>
<path d="M327.014 438.329V313.671H350.481V373.952L399.581 313.671H428.644L382.252 370.39L435.324 438.329H405.087L366.818 388.021L350.481 406.897V438.329H327.014Z"/>
<path d="M483.708 438.329V385.082L439.21 313.671H465.836L495.983 362.822L525.858 313.671H551.762L507.265 385.26V438.329H483.708Z"/>
<path d="M568.172 438.329V313.671H617.092C626.058 313.671 633.85 315.185 640.469 318.212C647.088 321.18 652.203 325.454 655.813 331.034C659.423 336.614 661.228 343.263 661.228 350.979C661.228 357.153 659.935 362.584 657.347 367.274C654.76 371.963 651.18 375.852 646.607 378.938C642.094 382.025 636.859 384.192 630.902 385.438L667.637 438.329H639.476L606.803 389.534H591.639V438.329H568.172ZM591.639 370.568H613.662C621.184 370.568 627.051 369.025 631.263 365.938C635.475 362.792 637.581 358.221 637.581 352.226C637.581 345.993 635.655 341.244 631.804 337.979C627.953 334.715 622.297 333.082 614.836 333.082H591.639V370.568Z"/>
<path d="M689.457 438.329V313.671H773.487V333.973H712.924V364.158H764.732V383.123H712.924V417.849H774.119V438.329H689.457Z"/>
<path d="M864.308 441C854.38 441 845.113 439.486 836.508 436.459C827.964 433.432 820.473 429.098 814.034 423.459C807.596 417.82 802.571 411.023 798.961 403.068C795.351 395.055 793.546 386.091 793.546 376.178C793.546 366.265 795.26 357.301 798.69 349.288C802.18 341.274 807.054 334.418 813.312 328.719C819.57 323.021 826.881 318.658 835.245 315.63C843.609 312.543 852.695 311 862.503 311C867.016 311 871.649 311.356 876.403 312.068C881.156 312.781 885.88 313.968 890.573 315.63C895.327 317.292 899.87 319.578 904.202 322.486L894.183 340.562C889.67 337.712 884.827 335.605 879.652 334.24C874.477 332.815 869.092 332.103 863.496 332.103C856.455 332.103 850.107 333.112 844.451 335.13C838.795 337.148 833.981 340.087 830.01 343.945C826.038 347.744 823 352.374 820.894 357.836C818.788 363.237 817.735 369.352 817.735 376.178C817.735 385.735 819.781 393.838 823.872 400.486C828.024 407.135 833.68 412.18 840.841 415.623C848.061 419.007 856.305 420.699 865.572 420.699C869.844 420.699 873.755 420.313 877.305 419.541C880.855 418.71 883.804 417.79 886.15 416.781V389.356H858.441V370.479H907V430.493C903.51 432.63 899.238 434.5 894.183 436.103C889.189 437.705 884.014 438.922 878.659 439.753C873.364 440.584 868.58 441 864.308 441Z"/>
</mask>
<path d="M255.108 441C246.082 441 237.267 439.724 228.662 437.171C220.118 434.559 212.897 430.849 207 426.041L218.373 408.5C221.261 411.112 224.721 413.368 228.752 415.267C232.784 417.167 237.056 418.651 241.569 419.719C246.142 420.728 250.685 421.233 255.198 421.233C262.719 421.233 268.827 419.868 273.52 417.137C278.214 414.347 280.56 410.34 280.56 405.116C280.56 401.021 278.936 397.607 275.686 394.877C272.437 392.087 266.45 389.475 257.725 387.041L245.45 383.568C233.115 380.126 224.179 375.525 218.643 369.767C213.168 363.95 210.43 356.826 210.43 348.397C210.43 342.877 211.573 337.831 213.86 333.26C216.146 328.689 219.365 324.742 223.517 321.418C227.729 318.094 232.693 315.541 238.41 313.76C244.126 311.979 250.354 311.089 257.093 311.089C265.939 311.089 274.152 312.365 281.734 314.918C289.315 317.411 295.513 320.824 300.327 325.158L288.684 342.164C286.156 339.849 283.178 337.831 279.748 336.11C276.318 334.388 272.618 333.082 268.646 332.192C264.675 331.242 260.674 330.767 256.642 330.767C251.888 330.767 247.737 331.42 244.186 332.726C240.636 334.032 237.868 335.902 235.883 338.336C233.897 340.769 232.904 343.737 232.904 347.24C232.904 349.792 233.566 352.018 234.89 353.918C236.274 355.817 238.62 357.568 241.93 359.171C245.239 360.715 249.812 362.347 255.649 364.068L268.466 367.808C280.56 371.311 289.376 375.822 294.911 381.342C300.447 386.804 303.215 393.927 303.215 402.712C303.215 410.251 301.29 416.9 297.439 422.658C293.588 428.416 288.052 432.927 280.831 436.192C273.671 439.397 265.096 441 255.108 441Z" stroke="#2F353F" stroke-width="2" stroke-dasharray="5.52 5.52" mask="url(#path-1-outside-1_117_1570)"/>
<path d="M327.014 438.329V313.671H350.481V373.952L399.581 313.671H428.644L382.252 370.39L435.324 438.329H405.087L366.818 388.021L350.481 406.897V438.329H327.014Z" stroke="#2F353F" stroke-width="2" stroke-dasharray="5.52 5.52" mask="url(#path-1-outside-1_117_1570)"/>
<path d="M483.708 438.329V385.082L439.21 313.671H465.836L495.983 362.822L525.858 313.671H551.762L507.265 385.26V438.329H483.708Z" stroke="#2F353F" stroke-width="2" stroke-dasharray="5.52 5.52" mask="url(#path-1-outside-1_117_1570)"/>
<path d="M568.172 438.329V313.671H617.092C626.058 313.671 633.85 315.185 640.469 318.212C647.088 321.18 652.203 325.454 655.813 331.034C659.423 336.614 661.228 343.263 661.228 350.979C661.228 357.153 659.935 362.584 657.347 367.274C654.76 371.963 651.18 375.852 646.607 378.938C642.094 382.025 636.859 384.192 630.902 385.438L667.637 438.329H639.476L606.803 389.534H591.639V438.329H568.172ZM591.639 370.568H613.662C621.184 370.568 627.051 369.025 631.263 365.938C635.475 362.792 637.581 358.221 637.581 352.226C637.581 345.993 635.655 341.244 631.804 337.979C627.953 334.715 622.297 333.082 614.836 333.082H591.639V370.568Z" stroke="#2F353F" stroke-width="2" stroke-dasharray="5.52 5.52" mask="url(#path-1-outside-1_117_1570)"/>
<path d="M689.457 438.329V313.671H773.487V333.973H712.924V364.158H764.732V383.123H712.924V417.849H774.119V438.329H689.457Z" stroke="#2F353F" stroke-width="2" stroke-dasharray="5.52 5.52" mask="url(#path-1-outside-1_117_1570)"/>
<path d="M864.308 441C854.38 441 845.113 439.486 836.508 436.459C827.964 433.432 820.473 429.098 814.034 423.459C807.596 417.82 802.571 411.023 798.961 403.068C795.351 395.055 793.546 386.091 793.546 376.178C793.546 366.265 795.26 357.301 798.69 349.288C802.18 341.274 807.054 334.418 813.312 328.719C819.57 323.021 826.881 318.658 835.245 315.63C843.609 312.543 852.695 311 862.503 311C867.016 311 871.649 311.356 876.403 312.068C881.156 312.781 885.88 313.968 890.573 315.63C895.327 317.292 899.87 319.578 904.202 322.486L894.183 340.562C889.67 337.712 884.827 335.605 879.652 334.24C874.477 332.815 869.092 332.103 863.496 332.103C856.455 332.103 850.107 333.112 844.451 335.13C838.795 337.148 833.981 340.087 830.01 343.945C826.038 347.744 823 352.374 820.894 357.836C818.788 363.237 817.735 369.352 817.735 376.178C817.735 385.735 819.781 393.838 823.872 400.486C828.024 407.135 833.68 412.18 840.841 415.623C848.061 419.007 856.305 420.699 865.572 420.699C869.844 420.699 873.755 420.313 877.305 419.541C880.855 418.71 883.804 417.79 886.15 416.781V389.356H858.441V370.479H907V430.493C903.51 432.63 899.238 434.5 894.183 436.103C889.189 437.705 884.014 438.922 878.659 439.753C873.364 440.584 868.58 441 864.308 441Z" stroke="#2F353F" stroke-width="2" stroke-dasharray="5.52 5.52" mask="url(#path-1-outside-1_117_1570)"/>
<path d="M1035.11 441C1026.08 441 1017.27 439.724 1008.66 437.171C1000.12 434.559 992.897 430.849 987 426.041L998.373 408.5C1001.26 411.112 1004.72 413.368 1008.75 415.267C1012.78 417.167 1017.06 418.651 1021.57 419.719C1026.14 420.728 1030.68 421.233 1035.2 421.233C1042.72 421.233 1048.83 419.868 1053.52 417.137C1058.21 414.347 1060.56 410.34 1060.56 405.116C1060.56 401.021 1058.94 397.607 1055.69 394.877C1052.44 392.087 1046.45 389.475 1037.73 387.041L1025.45 383.568C1013.11 380.126 1004.18 375.525 998.643 369.767C993.168 363.95 990.43 356.826 990.43 348.397C990.43 342.877 991.573 337.831 993.86 333.26C996.146 328.689 999.365 324.742 1003.52 321.418C1007.73 318.094 1012.69 315.541 1018.41 313.76C1024.13 311.979 1030.35 311.089 1037.09 311.089C1045.94 311.089 1054.15 312.365 1061.73 314.918C1069.32 317.411 1075.51 320.824 1080.33 325.158L1068.68 342.164C1066.16 339.849 1063.18 337.831 1059.75 336.11C1056.32 334.388 1052.62 333.082 1048.65 332.192C1044.67 331.242 1040.67 330.767 1036.64 330.767C1031.89 330.767 1027.74 331.42 1024.19 332.726C1020.64 334.032 1017.87 335.902 1015.88 338.336C1013.9 340.769 1012.9 343.737 1012.9 347.24C1012.9 349.792 1013.57 352.018 1014.89 353.918C1016.27 355.817 1018.62 357.568 1021.93 359.171C1025.24 360.715 1029.81 362.347 1035.65 364.068L1048.47 367.808C1060.56 371.311 1069.38 375.822 1074.91 381.342C1080.45 386.804 1083.22 393.927 1083.22 402.712C1083.22 410.251 1081.29 416.9 1077.44 422.658C1073.59 428.416 1068.05 432.927 1060.83 436.192C1053.67 439.397 1045.1 441 1035.11 441Z" fill="#0073E5"/>
<path d="M1107.01 438.329V313.671H1130.48V373.952L1179.58 313.671H1208.64L1162.25 370.39L1215.32 438.329H1185.09L1146.82 388.021L1130.48 406.897V438.329H1107.01Z" fill="#0073E5"/>
<path d="M1263.71 438.329V385.082L1219.21 313.671H1245.84L1275.98 362.822L1305.86 313.671H1331.76L1287.26 385.26V438.329H1263.71Z" fill="#0073E5"/>
<path d="M1348.17 438.329V313.671H1397.09C1406.06 313.671 1413.85 315.185 1420.47 318.212C1427.09 321.18 1432.2 325.454 1435.81 331.034C1439.42 336.614 1441.23 343.263 1441.23 350.979C1441.23 357.153 1439.93 362.584 1437.35 367.274C1434.76 371.963 1431.18 375.852 1426.61 378.938C1422.09 382.025 1416.86 384.192 1410.9 385.438L1447.64 438.329H1419.48L1386.8 389.534H1371.64V438.329H1348.17ZM1371.64 370.568H1393.66C1401.18 370.568 1407.05 369.025 1411.26 365.938C1415.47 362.792 1417.58 358.221 1417.58 352.226C1417.58 345.993 1415.66 341.244 1411.8 337.979C1407.95 334.715 1402.3 333.082 1394.84 333.082H1371.64V370.568Z" fill="#0073E5"/>
<path d="M1469.46 438.329V313.671H1553.49V333.973H1492.92V364.158H1544.73V383.123H1492.92V417.849H1554.12V438.329H1469.46Z" fill="#0073E5"/>
<path d="M1644.31 441C1634.38 441 1625.11 439.486 1616.51 436.459C1607.96 433.432 1600.47 429.098 1594.03 423.459C1587.6 417.82 1582.57 411.023 1578.96 403.068C1575.35 395.055 1573.55 386.091 1573.55 376.178C1573.55 366.265 1575.26 357.301 1578.69 349.288C1582.18 341.274 1587.05 334.418 1593.31 328.719C1599.57 323.021 1606.88 318.658 1615.24 315.63C1623.61 312.543 1632.69 311 1642.5 311C1647.02 311 1651.65 311.356 1656.4 312.068C1661.16 312.781 1665.88 313.968 1670.57 315.63C1675.33 317.292 1679.87 319.578 1684.2 322.486L1674.18 340.562C1669.67 337.712 1664.83 335.605 1659.65 334.24C1654.48 332.815 1649.09 332.103 1643.5 332.103C1636.46 332.103 1630.11 333.112 1624.45 335.13C1618.79 337.148 1613.98 340.087 1610.01 343.945C1606.04 347.744 1603 352.374 1600.89 357.836C1598.79 363.237 1597.73 369.352 1597.73 376.178C1597.73 385.735 1599.78 393.838 1603.87 400.486C1608.02 407.135 1613.68 412.18 1620.84 415.623C1628.06 419.007 1636.31 420.699 1645.57 420.699C1649.84 420.699 1653.75 420.313 1657.31 419.541C1660.86 418.71 1663.8 417.79 1666.15 416.781V389.356H1638.44V370.479H1687V430.493C1683.51 432.63 1679.24 434.5 1674.18 436.103C1669.19 437.705 1664.01 438.922 1658.66 439.753C1653.36 440.584 1648.58 441 1644.31 441Z" fill="#0073E5"/>
<path d="M48.1076 596C39.0818 596 30.2666 594.724 21.662 592.171C13.1175 589.559 5.89687 585.849 0 581.041L11.3725 563.5C14.2608 566.112 17.7207 568.368 21.7522 570.267C25.7838 572.167 30.056 573.651 34.5689 574.719C39.142 575.728 43.685 576.233 48.1979 576.233C55.7194 576.233 61.8268 574.868 66.5203 572.137C71.2137 569.347 73.5604 565.34 73.5604 560.116C73.5604 556.021 71.9358 552.607 68.6865 549.877C65.4372 547.087 59.45 544.475 50.7251 542.041L38.45 538.568C26.1147 535.126 17.1791 530.525 11.6433 524.767C6.16764 518.95 3.42981 511.826 3.42981 503.397C3.42981 497.877 4.57308 492.831 6.85962 488.26C9.14616 483.689 12.3654 479.742 16.5172 476.418C20.7293 473.094 25.6935 470.541 31.4098 468.76C37.1262 466.979 43.354 466.089 50.0933 466.089C58.9386 466.089 67.1521 467.365 74.7338 469.918C82.3155 472.411 88.5132 475.824 93.327 480.158L81.6836 497.164C79.1564 494.849 76.1779 492.831 72.7481 491.11C69.3183 489.388 65.6177 488.082 61.6463 487.192C57.675 486.242 53.6735 485.767 49.642 485.767C44.8884 485.767 40.7365 486.42 37.1864 487.726C33.6362 489.032 30.8683 490.902 28.8826 493.336C26.8969 495.769 25.9041 498.737 25.9041 502.24C25.9041 504.792 26.566 507.018 27.8898 508.918C29.2737 510.817 31.6204 512.568 34.9299 514.171C38.2394 515.715 42.8125 517.347 48.6492 519.068L61.4658 522.808C73.5604 526.311 82.3756 530.822 87.9115 536.342C93.4473 541.804 96.2152 548.927 96.2152 557.712C96.2152 565.251 94.2897 571.9 90.4387 577.658C86.5877 583.416 81.0518 587.927 73.8312 591.192C66.6707 594.397 58.0962 596 48.1076 596Z" fill="#0073E5"/>
<path d="M120.014 593.329V468.671H143.481V528.952L192.581 468.671H221.644L175.252 525.39L228.324 593.329H198.087L159.818 543.021L143.481 561.897V593.329H120.014Z" fill="#0073E5"/>
<path d="M276.708 593.329V540.082L232.21 468.671H258.836L288.983 517.822L318.858 468.671H344.762L300.265 540.26V593.329H276.708Z" fill="#0073E5"/>
<path d="M361.172 593.329V468.671H410.092C419.058 468.671 426.85 470.185 433.469 473.212C440.088 476.18 445.203 480.454 448.813 486.034C452.423 491.614 454.228 498.263 454.228 505.979C454.228 512.153 452.935 517.584 450.347 522.274C447.76 526.963 444.18 530.852 439.607 533.938C435.094 537.025 429.859 539.192 423.902 540.438L460.637 593.329H432.476L399.803 544.534H384.639V593.329H361.172ZM384.639 525.568H406.662C414.184 525.568 420.051 524.025 424.263 520.938C428.475 517.792 430.581 513.221 430.581 507.226C430.581 500.993 428.655 496.244 424.804 492.979C420.953 489.715 415.297 488.082 407.836 488.082H384.639V525.568Z" fill="#0073E5"/>
<path d="M482.457 593.329V468.671H566.487V488.973H505.924V519.158H557.732V538.123H505.924V572.849H567.119V593.329H482.457Z" fill="#0073E5"/>
<path d="M657.308 596C647.38 596 638.113 594.486 629.508 591.459C620.964 588.432 613.473 584.098 607.034 578.459C600.596 572.82 595.571 566.023 591.961 558.068C588.351 550.055 586.546 541.091 586.546 531.178C586.546 521.265 588.26 512.301 591.69 504.288C595.18 496.274 600.054 489.418 606.312 483.719C612.57 478.021 619.881 473.658 628.245 470.63C636.609 467.543 645.695 466 655.503 466C660.016 466 664.649 466.356 669.403 467.068C674.156 467.781 678.88 468.968 683.573 470.63C688.327 472.292 692.87 474.578 697.202 477.486L687.183 495.562C682.67 492.712 677.827 490.605 672.652 489.24C667.477 487.815 662.092 487.103 656.496 487.103C649.455 487.103 643.107 488.112 637.451 490.13C631.795 492.148 626.981 495.087 623.01 498.945C619.038 502.744 616 507.374 613.894 512.836C611.788 518.237 610.735 524.352 610.735 531.178C610.735 540.735 612.781 548.838 616.872 555.486C621.024 562.135 626.68 567.18 633.841 570.623C641.061 574.007 649.305 575.699 658.572 575.699C662.844 575.699 666.755 575.313 670.305 574.541C673.855 573.71 676.804 572.79 679.15 571.781V544.356H651.441V525.479H700V585.493C696.51 587.63 692.238 589.5 687.183 591.103C682.189 592.705 677.014 593.922 671.659 594.753C666.364 595.584 661.58 596 657.308 596Z" fill="#0073E5"/>
<mask id="path-4-outside-2_117_1570" maskUnits="userSpaceOnUse" x="778" y="465" width="703" height="132" fill="black">
<rect fill="white" x="778" y="465" width="703" height="132"/>
<path d="M828.108 596C819.082 596 810.267 594.724 801.662 592.171C793.118 589.559 785.897 585.849 780 581.041L791.373 563.5C794.261 566.112 797.721 568.368 801.752 570.267C805.784 572.167 810.056 573.651 814.569 574.719C819.142 575.728 823.685 576.233 828.198 576.233C835.719 576.233 841.827 574.868 846.52 572.137C851.214 569.347 853.56 565.34 853.56 560.116C853.56 556.021 851.936 552.607 848.686 549.877C845.437 547.087 839.45 544.475 830.725 542.041L818.45 538.568C806.115 535.126 797.179 530.525 791.643 524.767C786.168 518.95 783.43 511.826 783.43 503.397C783.43 497.877 784.573 492.831 786.86 488.26C789.146 483.689 792.365 479.742 796.517 476.418C800.729 473.094 805.693 470.541 811.41 468.76C817.126 466.979 823.354 466.089 830.093 466.089C838.939 466.089 847.152 467.365 854.734 469.918C862.315 472.411 868.513 475.824 873.327 480.158L861.684 497.164C859.156 494.849 856.178 492.831 852.748 491.11C849.318 489.388 845.618 488.082 841.646 487.192C837.675 486.242 833.674 485.767 829.642 485.767C824.888 485.767 820.737 486.42 817.186 487.726C813.636 489.032 810.868 490.902 808.883 493.336C806.897 495.769 805.904 498.737 805.904 502.24C805.904 504.792 806.566 507.018 807.89 508.918C809.274 510.817 811.62 512.568 814.93 514.171C818.239 515.715 822.812 517.347 828.649 519.068L841.466 522.808C853.56 526.311 862.376 530.822 867.911 536.342C873.447 541.804 876.215 548.927 876.215 557.712C876.215 565.251 874.29 571.9 870.439 577.658C866.588 583.416 861.052 587.927 853.831 591.192C846.671 594.397 838.096 596 828.108 596Z"/>
<path d="M900.014 593.329V468.671H923.481V528.952L972.581 468.671H1001.64L955.252 525.39L1008.32 593.329H978.087L939.818 543.021L923.481 561.897V593.329H900.014Z"/>
<path d="M1056.71 593.329V540.082L1012.21 468.671H1038.84L1068.98 517.822L1098.86 468.671H1124.76L1080.26 540.26V593.329H1056.71Z"/>
<path d="M1141.17 593.329V468.671H1190.09C1199.06 468.671 1206.85 470.185 1213.47 473.212C1220.09 476.18 1225.2 480.454 1228.81 486.034C1232.42 491.614 1234.23 498.263 1234.23 505.979C1234.23 512.153 1232.93 517.584 1230.35 522.274C1227.76 526.963 1224.18 530.852 1219.61 533.938C1215.09 537.025 1209.86 539.192 1203.9 540.438L1240.64 593.329H1212.48L1179.8 544.534H1164.64V593.329H1141.17ZM1164.64 525.568H1186.66C1194.18 525.568 1200.05 524.025 1204.26 520.938C1208.47 517.792 1210.58 513.221 1210.58 507.226C1210.58 500.993 1208.66 496.244 1204.8 492.979C1200.95 489.715 1195.3 488.082 1187.84 488.082H1164.64V525.568Z"/>
<path d="M1262.46 593.329V468.671H1346.49V488.973H1285.92V519.158H1337.73V538.123H1285.92V572.849H1347.12V593.329H1262.46Z"/>
<path d="M1437.31 596C1427.38 596 1418.11 594.486 1409.51 591.459C1400.96 588.432 1393.47 584.098 1387.03 578.459C1380.6 572.82 1375.57 566.023 1371.96 558.068C1368.35 550.055 1366.55 541.091 1366.55 531.178C1366.55 521.265 1368.26 512.301 1371.69 504.288C1375.18 496.274 1380.05 489.418 1386.31 483.719C1392.57 478.021 1399.88 473.658 1408.24 470.63C1416.61 467.543 1425.69 466 1435.5 466C1440.02 466 1444.65 466.356 1449.4 467.068C1454.16 467.781 1458.88 468.968 1463.57 470.63C1468.33 472.292 1472.87 474.578 1477.2 477.486L1467.18 495.562C1462.67 492.712 1457.83 490.605 1452.65 489.24C1447.48 487.815 1442.09 487.103 1436.5 487.103C1429.46 487.103 1423.11 488.112 1417.45 490.13C1411.79 492.148 1406.98 495.087 1403.01 498.945C1399.04 502.744 1396 507.374 1393.89 512.836C1391.79 518.237 1390.73 524.352 1390.73 531.178C1390.73 540.735 1392.78 548.838 1396.87 555.486C1401.02 562.135 1406.68 567.18 1413.84 570.623C1421.06 574.007 1429.31 575.699 1438.57 575.699C1442.84 575.699 1446.75 575.313 1450.31 574.541C1453.86 573.71 1456.8 572.79 1459.15 571.781V544.356H1431.44V525.479H1480V585.493C1476.51 587.63 1472.24 589.5 1467.18 591.103C1462.19 592.705 1457.01 593.922 1451.66 594.753C1446.36 595.584 1441.58 596 1437.31 596Z"/>
</mask>
<path d="M828.108 596C819.082 596 810.267 594.724 801.662 592.171C793.118 589.559 785.897 585.849 780 581.041L791.373 563.5C794.261 566.112 797.721 568.368 801.752 570.267C805.784 572.167 810.056 573.651 814.569 574.719C819.142 575.728 823.685 576.233 828.198 576.233C835.719 576.233 841.827 574.868 846.52 572.137C851.214 569.347 853.56 565.34 853.56 560.116C853.56 556.021 851.936 552.607 848.686 549.877C845.437 547.087 839.45 544.475 830.725 542.041L818.45 538.568C806.115 535.126 797.179 530.525 791.643 524.767C786.168 518.95 783.43 511.826 783.43 503.397C783.43 497.877 784.573 492.831 786.86 488.26C789.146 483.689 792.365 479.742 796.517 476.418C800.729 473.094 805.693 470.541 811.41 468.76C817.126 466.979 823.354 466.089 830.093 466.089C838.939 466.089 847.152 467.365 854.734 469.918C862.315 472.411 868.513 475.824 873.327 480.158L861.684 497.164C859.156 494.849 856.178 492.831 852.748 491.11C849.318 489.388 845.618 488.082 841.646 487.192C837.675 486.242 833.674 485.767 829.642 485.767C824.888 485.767 820.737 486.42 817.186 487.726C813.636 489.032 810.868 490.902 808.883 493.336C806.897 495.769 805.904 498.737 805.904 502.24C805.904 504.792 806.566 507.018 807.89 508.918C809.274 510.817 811.62 512.568 814.93 514.171C818.239 515.715 822.812 517.347 828.649 519.068L841.466 522.808C853.56 526.311 862.376 530.822 867.911 536.342C873.447 541.804 876.215 548.927 876.215 557.712C876.215 565.251 874.29 571.9 870.439 577.658C866.588 583.416 861.052 587.927 853.831 591.192C846.671 594.397 838.096 596 828.108 596Z" stroke="#2F353F" stroke-width="2" stroke-dasharray="5.52 5.52" mask="url(#path-4-outside-2_117_1570)"/>
<path d="M900.014 593.329V468.671H923.481V528.952L972.581 468.671H1001.64L955.252 525.39L1008.32 593.329H978.087L939.818 543.021L923.481 561.897V593.329H900.014Z" stroke="#2F353F" stroke-width="2" stroke-dasharray="5.52 5.52" mask="url(#path-4-outside-2_117_1570)"/>
<path d="M1056.71 593.329V540.082L1012.21 468.671H1038.84L1068.98 517.822L1098.86 468.671H1124.76L1080.26 540.26V593.329H1056.71Z" stroke="#2F353F" stroke-width="2" stroke-dasharray="5.52 5.52" mask="url(#path-4-outside-2_117_1570)"/>
<path d="M1141.17 593.329V468.671H1190.09C1199.06 468.671 1206.85 470.185 1213.47 473.212C1220.09 476.18 1225.2 480.454 1228.81 486.034C1232.42 491.614 1234.23 498.263 1234.23 505.979C1234.23 512.153 1232.93 517.584 1230.35 522.274C1227.76 526.963 1224.18 530.852 1219.61 533.938C1215.09 537.025 1209.86 539.192 1203.9 540.438L1240.64 593.329H1212.48L1179.8 544.534H1164.64V593.329H1141.17ZM1164.64 525.568H1186.66C1194.18 525.568 1200.05 524.025 1204.26 520.938C1208.47 517.792 1210.58 513.221 1210.58 507.226C1210.58 500.993 1208.66 496.244 1204.8 492.979C1200.95 489.715 1195.3 488.082 1187.84 488.082H1164.64V525.568Z" stroke="#2F353F" stroke-width="2" stroke-dasharray="5.52 5.52" mask="url(#path-4-outside-2_117_1570)"/>
<path d="M1262.46 593.329V468.671H1346.49V488.973H1285.92V519.158H1337.73V538.123H1285.92V572.849H1347.12V593.329H1262.46Z" stroke="#2F353F" stroke-width="2" stroke-dasharray="5.52 5.52" mask="url(#path-4-outside-2_117_1570)"/>
<path d="M1437.31 596C1427.38 596 1418.11 594.486 1409.51 591.459C1400.96 588.432 1393.47 584.098 1387.03 578.459C1380.6 572.82 1375.57 566.023 1371.96 558.068C1368.35 550.055 1366.55 541.091 1366.55 531.178C1366.55 521.265 1368.26 512.301 1371.69 504.288C1375.18 496.274 1380.05 489.418 1386.31 483.719C1392.57 478.021 1399.88 473.658 1408.24 470.63C1416.61 467.543 1425.69 466 1435.5 466C1440.02 466 1444.65 466.356 1449.4 467.068C1454.16 467.781 1458.88 468.968 1463.57 470.63C1468.33 472.292 1472.87 474.578 1477.2 477.486L1467.18 495.562C1462.67 492.712 1457.83 490.605 1452.65 489.24C1447.48 487.815 1442.09 487.103 1436.5 487.103C1429.46 487.103 1423.11 488.112 1417.45 490.13C1411.79 492.148 1406.98 495.087 1403.01 498.945C1399.04 502.744 1396 507.374 1393.89 512.836C1391.79 518.237 1390.73 524.352 1390.73 531.178C1390.73 540.735 1392.78 548.838 1396.87 555.486C1401.02 562.135 1406.68 567.18 1413.84 570.623C1421.06 574.007 1429.31 575.699 1438.57 575.699C1442.84 575.699 1446.75 575.313 1450.31 574.541C1453.86 573.71 1456.8 572.79 1459.15 571.781V544.356H1431.44V525.479H1480V585.493C1476.51 587.63 1472.24 589.5 1467.18 591.103C1462.19 592.705 1457.01 593.922 1451.66 594.753C1446.36 595.584 1441.58 596 1437.31 596Z" stroke="#2F353F" stroke-width="2" stroke-dasharray="5.52 5.52" mask="url(#path-4-outside-2_117_1570)"/>
<g clip-path="url(#clip0_117_1570)">
<path d="M964.843 365.645C963.847 365.538 955.041 364.628 952.631 365.549C951.36 366.033 950.317 366.978 949.708 368.197C949.099 369.416 948.97 370.819 949.344 372.129C949.376 372.238 949.414 372.354 949.461 372.483L949.674 373.07L951.738 372.294L951.531 371.72C951.246 370.926 951.282 370.05 951.634 369.283C951.985 368.515 952.623 367.916 953.41 367.615C954.551 367.18 958.714 367.341 962.383 367.637C961.104 368.981 958.991 371.141 957.323 372.525C956.741 373.004 956.216 373.55 955.759 374.15L955.158 374.942L955.091 375.038C954.418 375.999 954.107 376.911 953.494 378.811L953.378 379.169C951.429 385.189 947.527 388.505 941.778 389.023L943.772 383.465L941.709 382.724L938.643 391.3L940.206 391.293C944.05 391.28 947.313 390.262 949.904 388.273C952.411 386.351 954.287 383.513 955.469 379.85L955.585 379.491C956.377 377.041 956.519 376.608 957.76 375.244C958.273 374.687 958.816 374.159 959.388 373.663C961.977 371.402 964.969 368.12 965.543 367.485L967 365.873L964.843 365.645Z" fill="#0073E5"/>
<path d="M955.977 370.001C956.035 369.82 956.038 369.626 955.986 369.443C955.934 369.261 955.829 369.097 955.685 368.974C955.54 368.851 955.362 368.774 955.174 368.752C954.986 368.731 954.795 368.765 954.627 368.852C954.458 368.939 954.319 369.074 954.226 369.24C954.134 369.406 954.093 369.596 954.109 369.785C954.124 369.974 954.195 370.155 954.313 370.304C954.431 370.453 954.59 370.564 954.77 370.622C954.89 370.66 955.016 370.675 955.142 370.665C955.267 370.655 955.39 370.62 955.502 370.562C955.614 370.504 955.713 370.425 955.795 370.329C955.876 370.233 955.938 370.121 955.977 370.001Z" fill="#0073E5"/>
<path d="M945.749 377.809C947.565 372.151 944.347 366.035 938.576 364.175L928.11 360.8L927.502 362.696C927.043 364.141 926.897 365.668 927.072 367.174C927.247 368.68 927.739 370.132 928.517 371.433C929.907 373.764 932.098 375.506 934.68 376.33L945.145 379.703L945.749 377.809ZM943.724 376.94L935.347 374.239C933.275 373.577 931.515 372.179 930.399 370.309C929.798 369.305 929.411 368.188 929.261 367.028C929.111 365.868 929.202 364.689 929.528 363.565L937.905 366.266C942.458 367.733 945.033 372.49 943.724 376.94Z" fill="#0073E5"/>
</g>
<g clip-path="url(#clip1_117_1570)">
<path d="M757.843 520.645C756.847 520.538 748.041 519.628 745.631 520.549C744.36 521.033 743.317 521.978 742.708 523.197C742.099 524.416 741.97 525.819 742.344 527.129C742.376 527.238 742.414 527.354 742.461 527.483L742.674 528.07L744.738 527.294L744.531 526.72C744.246 525.926 744.282 525.05 744.634 524.283C744.985 523.515 745.623 522.916 746.41 522.615C747.551 522.18 751.714 522.341 755.383 522.637C754.104 523.981 751.991 526.141 750.323 527.525C749.741 528.004 749.216 528.55 748.759 529.15L748.158 529.942L748.091 530.038C747.418 530.999 747.107 531.911 746.494 533.811L746.378 534.169C744.429 540.189 740.527 543.505 734.778 544.023L736.772 538.465L734.709 537.724L731.643 546.3L733.206 546.293C737.05 546.28 740.313 545.262 742.904 543.273C745.411 541.351 747.287 538.513 748.469 534.85L748.585 534.491C749.377 532.041 749.519 531.608 750.76 530.244C751.273 529.687 751.816 529.159 752.388 528.663C754.977 526.402 757.969 523.12 758.543 522.485L760 520.873L757.843 520.645Z" fill="#2F353F"/>
<path d="M748.977 525.001C749.035 524.82 749.038 524.626 748.986 524.443C748.934 524.261 748.829 524.097 748.685 523.974C748.54 523.851 748.362 523.774 748.174 523.752C747.986 523.731 747.795 523.765 747.627 523.852C747.458 523.939 747.319 524.074 747.226 524.24C747.134 524.406 747.093 524.596 747.109 524.785C747.124 524.974 747.195 525.155 747.313 525.304C747.431 525.453 747.59 525.564 747.77 525.622C747.89 525.66 748.016 525.675 748.142 525.665C748.267 525.655 748.39 525.62 748.502 525.562C748.614 525.504 748.713 525.425 748.795 525.329C748.876 525.233 748.938 525.121 748.977 525.001Z" fill="#2F353F"/>
<path d="M738.749 532.809C740.565 527.151 737.347 521.035 731.576 519.175L721.11 515.8L720.502 517.696C720.043 519.141 719.897 520.668 720.072 522.174C720.247 523.68 720.739 525.132 721.517 526.433C722.907 528.764 725.098 530.506 727.68 531.33L738.145 534.703L738.749 532.809ZM736.724 531.94L728.347 529.239C726.275 528.577 724.515 527.179 723.399 525.309C722.798 524.305 722.411 523.188 722.261 522.028C722.111 520.868 722.202 519.689 722.528 518.565L730.905 521.266C735.458 522.733 738.033 527.49 736.724 531.94Z" fill="#2F353F"/>
</g>
<g clip-path="url(#clip2_117_1570)">
<path d="M1034.84 210.645C1033.85 210.538 1025.04 209.628 1022.63 210.549C1021.36 211.033 1020.32 211.978 1019.71 213.197C1019.1 214.416 1018.97 215.819 1019.34 217.129C1019.38 217.238 1019.41 217.354 1019.46 217.483L1019.67 218.07L1021.74 217.294L1021.53 216.72C1021.25 215.926 1021.28 215.05 1021.63 214.283C1021.99 213.515 1022.62 212.916 1023.41 212.615C1024.55 212.18 1028.71 212.341 1032.38 212.637C1031.1 213.981 1028.99 216.141 1027.32 217.525C1026.74 218.004 1026.22 218.55 1025.76 219.15L1025.16 219.942L1025.09 220.038C1024.42 220.999 1024.11 221.911 1023.49 223.811L1023.38 224.169C1021.43 230.189 1017.53 233.505 1011.78 234.023L1013.77 228.465L1011.71 227.724L1008.64 236.3L1010.21 236.293C1014.05 236.28 1017.31 235.262 1019.9 233.273C1022.41 231.351 1024.29 228.513 1025.47 224.85L1025.59 224.491C1026.38 222.041 1026.52 221.608 1027.76 220.244C1028.27 219.687 1028.82 219.159 1029.39 218.663C1031.98 216.402 1034.97 213.12 1035.54 212.485L1037 210.873L1034.84 210.645Z" fill="#2F353F"/>
<path d="M1025.98 215.001C1026.03 214.82 1026.04 214.626 1025.99 214.443C1025.93 214.261 1025.83 214.097 1025.68 213.974C1025.54 213.851 1025.36 213.774 1025.17 213.752C1024.99 213.731 1024.8 213.765 1024.63 213.852C1024.46 213.939 1024.32 214.074 1024.23 214.24C1024.13 214.406 1024.09 214.596 1024.11 214.785C1024.12 214.974 1024.2 215.155 1024.31 215.304C1024.43 215.453 1024.59 215.564 1024.77 215.622C1024.89 215.66 1025.02 215.675 1025.14 215.665C1025.27 215.655 1025.39 215.62 1025.5 215.562C1025.61 215.504 1025.71 215.425 1025.8 215.329C1025.88 215.233 1025.94 215.121 1025.98 215.001Z" fill="#2F353F"/>
<path d="M1015.75 222.809C1017.57 217.151 1014.35 211.035 1008.58 209.175L998.11 205.8L997.502 207.696C997.043 209.141 996.897 210.668 997.072 212.174C997.247 213.68 997.739 215.132 998.517 216.433C999.907 218.764 1002.1 220.506 1004.68 221.33L1015.15 224.703L1015.75 222.809ZM1013.72 221.94L1005.35 219.239C1003.27 218.577 1001.52 217.179 1000.4 215.309C999.798 214.305 999.411 213.188 999.261 212.028C999.111 210.868 999.202 209.689 999.528 208.565L1007.9 211.266C1012.46 212.733 1015.03 217.49 1013.72 221.94Z" fill="#2F353F"/>
</g>
<g clip-path="url(#clip3_117_1570)">
<path d="M1241.84 55.6451C1240.85 55.538 1232.04 54.6278 1229.63 55.549C1228.36 56.0331 1227.32 56.9782 1226.71 58.1969C1226.1 59.4156 1225.97 60.819 1226.34 62.1293C1226.38 62.2377 1226.41 62.3544 1226.46 62.4835L1226.67 63.0696L1228.74 62.2939L1228.53 61.7201C1228.25 60.9255 1228.28 60.0503 1228.63 59.2826C1228.99 58.515 1229.62 57.9162 1230.41 57.6152C1231.55 57.18 1235.71 57.3406 1239.38 57.6371C1238.1 58.9812 1235.99 61.1407 1234.32 62.5247C1233.74 63.0045 1233.22 63.5499 1232.76 64.1502L1232.16 64.9423L1232.09 65.0383C1231.42 65.9993 1231.11 66.911 1230.49 68.8111L1230.38 69.1693C1228.43 75.1895 1224.53 78.505 1218.78 79.0226L1220.77 73.4651L1218.71 72.7238L1215.64 81.3002L1217.21 81.2933C1221.05 81.2796 1224.31 80.2622 1226.9 78.273C1229.41 76.351 1231.29 73.5132 1232.47 69.8503L1232.59 69.4906C1233.38 67.0413 1233.52 66.6076 1234.76 65.2443C1235.27 64.687 1235.82 64.1589 1236.39 63.6627C1238.98 61.4016 1241.97 58.1204 1242.54 57.4848L1244 55.873L1241.84 55.6451Z" fill="#0073E5"/>
<path d="M1232.98 60.0012C1233.03 59.8203 1233.04 59.6262 1232.99 59.4434C1232.93 59.2607 1232.83 59.0975 1232.68 58.9745C1232.54 58.8515 1232.36 58.7742 1232.17 58.7524C1231.99 58.7306 1231.8 58.7652 1231.63 58.852C1231.46 58.9388 1231.32 59.0737 1231.23 59.2398C1231.13 59.4058 1231.09 59.5956 1231.11 59.785C1231.12 59.9744 1231.2 60.155 1231.31 60.304C1231.43 60.4529 1231.59 60.5635 1231.77 60.6218C1231.89 60.6605 1232.02 60.6751 1232.14 60.6649C1232.27 60.6547 1232.39 60.6197 1232.5 60.5621C1232.61 60.5045 1232.71 60.4253 1232.8 60.329C1232.88 60.2328 1232.94 60.1214 1232.98 60.0012Z" fill="#0073E5"/>
<path d="M1222.75 67.8089C1224.57 62.1512 1221.35 56.035 1215.58 54.1747L1205.11 50.8002L1204.5 52.6961C1204.04 54.1413 1203.9 55.6677 1204.07 57.1741C1204.25 58.6805 1204.74 60.1323 1205.52 61.4332C1206.91 63.7642 1209.1 65.5059 1211.68 66.3302L1222.15 69.7033L1222.75 67.8089ZM1220.72 66.9398L1212.35 64.2393C1210.27 63.5772 1208.52 62.1794 1207.4 60.3088C1206.8 59.3053 1206.41 58.1885 1206.26 57.0281C1206.11 55.8677 1206.2 54.6888 1206.53 53.5652L1214.9 56.2656C1219.46 57.7332 1222.03 62.4902 1220.72 66.9398Z" fill="#0073E5"/>
</g>
<mask id="path-9-outside-3_117_1570" maskUnits="userSpaceOnUse" x="482" y="0" width="703" height="132" fill="black">
<rect fill="white" x="482" width="703" height="132"/>
<path d="M532.108 131C523.082 131 514.267 129.724 505.662 127.171C497.118 124.559 489.897 120.849 484 116.041L495.373 98.5C498.261 101.112 501.721 103.368 505.752 105.267C509.784 107.167 514.056 108.651 518.569 109.719C523.142 110.728 527.685 111.233 532.198 111.233C539.719 111.233 545.827 109.868 550.52 107.137C555.214 104.347 557.56 100.34 557.56 95.1164C557.56 91.0205 555.936 87.6073 552.686 84.8767C549.437 82.0868 543.45 79.4749 534.725 77.0411L522.45 73.5685C510.115 70.1256 501.179 65.5251 495.643 59.7671C490.168 53.9498 487.43 46.8265 487.43 38.3973C487.43 32.8767 488.573 27.8311 490.86 23.2603C493.146 18.6895 496.365 14.742 500.517 11.4178C504.729 8.09361 509.693 5.5411 515.41 3.76028C521.126 1.97946 527.354 1.08905 534.093 1.08905C542.939 1.08905 551.152 2.3653 558.734 4.91781C566.315 7.41096 572.513 10.8242 577.327 15.1575L565.684 32.1644C563.156 29.8493 560.178 27.831 556.748 26.1096C553.318 24.3881 549.618 23.0822 545.646 22.1918C541.675 21.242 537.674 20.7671 533.642 20.7671C528.888 20.7671 524.737 21.4201 521.186 22.726C517.636 24.032 514.868 25.9018 512.883 28.3356C510.897 30.7694 509.904 33.7374 509.904 37.2397C509.904 39.7922 510.566 42.0183 511.89 43.9178C513.274 45.8173 515.62 47.5685 518.93 49.1712C522.239 50.7146 526.812 52.347 532.649 54.0685L545.466 57.8082C557.56 61.3105 566.376 65.8219 571.911 71.3425C577.447 76.8036 580.215 83.9269 580.215 92.7123C580.215 100.251 578.29 106.9 574.439 112.658C570.588 118.416 565.052 122.927 557.831 126.192C550.671 129.397 542.096 131 532.108 131Z"/>
<path d="M604.014 128.329V3.67123H627.481V63.952L676.581 3.67123H705.644L659.252 60.3904L712.324 128.329H682.087L643.818 78.0205L627.481 96.8973V128.329H604.014Z"/>
<path d="M760.708 128.329V75.0822L716.21 3.67123H742.836L772.983 52.8219L802.858 3.67123H828.762L784.265 75.2603V128.329H760.708Z"/>
<path d="M845.172 128.329V3.67123H894.092C903.058 3.67123 910.85 5.18493 917.469 8.21233C924.088 11.1804 929.203 15.4543 932.813 21.0342C936.423 26.6142 938.228 33.2626 938.228 40.9795C938.228 47.153 936.935 52.5845 934.347 57.274C931.76 61.9635 928.18 65.8516 923.607 68.9383C919.094 72.0251 913.859 74.1918 907.902 75.4384L944.637 128.329H916.476L883.803 79.5342H868.639V128.329H845.172ZM868.639 60.5685H890.662C898.184 60.5685 904.051 59.0251 908.263 55.9384C912.475 52.7922 914.581 48.2215 914.581 42.226C914.581 35.9931 912.655 31.2443 908.804 27.9794C904.953 24.7146 899.297 23.0822 891.836 23.0822H868.639V60.5685Z"/>
<path d="M966.457 128.329V66V3.67123H1050.49V23.9726H989.924V54.1575H1041.73V73.1233H989.924V107.849H1051.12V128.329H966.457Z"/>
<path d="M1141.31 131C1131.38 131 1122.11 129.486 1113.51 126.459C1104.96 123.432 1097.47 119.098 1091.03 113.459C1084.6 107.82 1079.57 101.023 1075.96 93.0685C1072.35 85.0548 1070.55 76.0913 1070.55 66.1781C1070.55 56.2648 1072.26 47.3014 1075.69 39.2877C1079.18 31.274 1084.05 24.4178 1090.31 18.7192C1096.57 13.0206 1103.88 8.65754 1112.24 5.63014C1120.61 2.54338 1129.69 1 1139.5 1C1144.02 1 1148.65 1.35616 1153.4 2.06849C1158.16 2.78082 1162.88 3.96804 1167.57 5.63014C1172.33 7.29224 1176.87 9.57763 1181.2 12.4863L1171.18 30.5616C1166.67 27.7123 1161.83 25.605 1156.65 24.2397C1151.48 22.8151 1146.09 22.1027 1140.5 22.1027C1133.46 22.1027 1127.11 23.1119 1121.45 25.1301C1115.79 27.1484 1110.98 30.0868 1107.01 33.9452C1103.04 37.7443 1100 42.3744 1097.89 47.8356C1095.79 53.2374 1094.73 59.3516 1094.73 66.1781C1094.73 75.7352 1096.78 83.8379 1100.87 90.4863C1105.02 97.1347 1110.68 102.18 1117.84 105.623C1125.06 109.007 1133.3 110.699 1142.57 110.699C1146.84 110.699 1150.75 110.313 1154.31 109.541C1157.86 108.71 1160.8 107.79 1163.15 106.781V79.3562H1135.44V60.4795H1184V120.493C1180.51 122.63 1176.24 124.5 1171.18 126.103C1166.19 127.705 1161.01 128.922 1155.66 129.753C1150.36 130.584 1145.58 131 1141.31 131Z"/>
</mask>
<path d="M532.108 131C523.082 131 514.267 129.724 505.662 127.171C497.118 124.559 489.897 120.849 484 116.041L495.373 98.5C498.261 101.112 501.721 103.368 505.752 105.267C509.784 107.167 514.056 108.651 518.569 109.719C523.142 110.728 527.685 111.233 532.198 111.233C539.719 111.233 545.827 109.868 550.52 107.137C555.214 104.347 557.56 100.34 557.56 95.1164C557.56 91.0205 555.936 87.6073 552.686 84.8767C549.437 82.0868 543.45 79.4749 534.725 77.0411L522.45 73.5685C510.115 70.1256 501.179 65.5251 495.643 59.7671C490.168 53.9498 487.43 46.8265 487.43 38.3973C487.43 32.8767 488.573 27.8311 490.86 23.2603C493.146 18.6895 496.365 14.742 500.517 11.4178C504.729 8.09361 509.693 5.5411 515.41 3.76028C521.126 1.97946 527.354 1.08905 534.093 1.08905C542.939 1.08905 551.152 2.3653 558.734 4.91781C566.315 7.41096 572.513 10.8242 577.327 15.1575L565.684 32.1644C563.156 29.8493 560.178 27.831 556.748 26.1096C553.318 24.3881 549.618 23.0822 545.646 22.1918C541.675 21.242 537.674 20.7671 533.642 20.7671C528.888 20.7671 524.737 21.4201 521.186 22.726C517.636 24.032 514.868 25.9018 512.883 28.3356C510.897 30.7694 509.904 33.7374 509.904 37.2397C509.904 39.7922 510.566 42.0183 511.89 43.9178C513.274 45.8173 515.62 47.5685 518.93 49.1712C522.239 50.7146 526.812 52.347 532.649 54.0685L545.466 57.8082C557.56 61.3105 566.376 65.8219 571.911 71.3425C577.447 76.8036 580.215 83.9269 580.215 92.7123C580.215 100.251 578.29 106.9 574.439 112.658C570.588 118.416 565.052 122.927 557.831 126.192C550.671 129.397 542.096 131 532.108 131Z" stroke="#2F353F" stroke-width="2" stroke-dasharray="5.52 5.52" mask="url(#path-9-outside-3_117_1570)"/>
<path d="M604.014 128.329V3.67123H627.481V63.952L676.581 3.67123H705.644L659.252 60.3904L712.324 128.329H682.087L643.818 78.0205L627.481 96.8973V128.329H604.014Z" stroke="#2F353F" stroke-width="2" stroke-dasharray="5.52 5.52" mask="url(#path-9-outside-3_117_1570)"/>
<path d="M760.708 128.329V75.0822L716.21 3.67123H742.836L772.983 52.8219L802.858 3.67123H828.762L784.265 75.2603V128.329H760.708Z" stroke="#2F353F" stroke-width="2" stroke-dasharray="5.52 5.52" mask="url(#path-9-outside-3_117_1570)"/>
<path d="M845.172 128.329V3.67123H894.092C903.058 3.67123 910.85 5.18493 917.469 8.21233C924.088 11.1804 929.203 15.4543 932.813 21.0342C936.423 26.6142 938.228 33.2626 938.228 40.9795C938.228 47.153 936.935 52.5845 934.347 57.274C931.76 61.9635 928.18 65.8516 923.607 68.9383C919.094 72.0251 913.859 74.1918 907.902 75.4384L944.637 128.329H916.476L883.803 79.5342H868.639V128.329H845.172ZM868.639 60.5685H890.662C898.184 60.5685 904.051 59.0251 908.263 55.9384C912.475 52.7922 914.581 48.2215 914.581 42.226C914.581 35.9931 912.655 31.2443 908.804 27.9794C904.953 24.7146 899.297 23.0822 891.836 23.0822H868.639V60.5685Z" stroke="#2F353F" stroke-width="2" stroke-dasharray="5.52 5.52" mask="url(#path-9-outside-3_117_1570)"/>
<path d="M966.457 128.329V66V3.67123H1050.49V23.9726H989.924V54.1575H1041.73V73.1233H989.924V107.849H1051.12V128.329H966.457Z" stroke="#2F353F" stroke-width="2" stroke-dasharray="5.52 5.52" mask="url(#path-9-outside-3_117_1570)"/>
<path d="M1141.31 131C1131.38 131 1122.11 129.486 1113.51 126.459C1104.96 123.432 1097.47 119.098 1091.03 113.459C1084.6 107.82 1079.57 101.023 1075.96 93.0685C1072.35 85.0548 1070.55 76.0913 1070.55 66.1781C1070.55 56.2648 1072.26 47.3014 1075.69 39.2877C1079.18 31.274 1084.05 24.4178 1090.31 18.7192C1096.57 13.0206 1103.88 8.65754 1112.24 5.63014C1120.61 2.54338 1129.69 1 1139.5 1C1144.02 1 1148.65 1.35616 1153.4 2.06849C1158.16 2.78082 1162.88 3.96804 1167.57 5.63014C1172.33 7.29224 1176.87 9.57763 1181.2 12.4863L1171.18 30.5616C1166.67 27.7123 1161.83 25.605 1156.65 24.2397C1151.48 22.8151 1146.09 22.1027 1140.5 22.1027C1133.46 22.1027 1127.11 23.1119 1121.45 25.1301C1115.79 27.1484 1110.98 30.0868 1107.01 33.9452C1103.04 37.7443 1100 42.3744 1097.89 47.8356C1095.79 53.2374 1094.73 59.3516 1094.73 66.1781C1094.73 75.7352 1096.78 83.8379 1100.87 90.4863C1105.02 97.1347 1110.68 102.18 1117.84 105.623C1125.06 109.007 1133.3 110.699 1142.57 110.699C1146.84 110.699 1150.75 110.313 1154.31 109.541C1157.86 108.71 1160.8 107.79 1163.15 106.781V79.3562H1135.44V60.4795H1184V120.493C1180.51 122.63 1176.24 124.5 1171.18 126.103C1166.19 127.705 1161.01 128.922 1155.66 129.753C1150.36 130.584 1145.58 131 1141.31 131Z" stroke="#2F353F" stroke-width="2" stroke-dasharray="5.52 5.52" mask="url(#path-9-outside-3_117_1570)"/>
<path d="M1312.11 131C1303.08 131 1294.27 129.724 1285.66 127.171C1277.12 124.559 1269.9 120.849 1264 116.041L1275.37 98.5C1278.26 101.112 1281.72 103.368 1285.75 105.267C1289.78 107.167 1294.06 108.651 1298.57 109.719C1303.14 110.728 1307.68 111.233 1312.2 111.233C1319.72 111.233 1325.83 109.868 1330.52 107.137C1335.21 104.347 1337.56 100.34 1337.56 95.1164C1337.56 91.0205 1335.94 87.6073 1332.69 84.8767C1329.44 82.0868 1323.45 79.4749 1314.73 77.0411L1302.45 73.5685C1290.11 70.1256 1281.18 65.5251 1275.64 59.7671C1270.17 53.9498 1267.43 46.8265 1267.43 38.3973C1267.43 32.8767 1268.57 27.831 1270.86 23.2603C1273.15 18.6895 1276.37 14.742 1280.52 11.4178C1284.73 8.09361 1289.69 5.5411 1295.41 3.76028C1301.13 1.97946 1307.35 1.08905 1314.09 1.08905C1322.94 1.08905 1331.15 2.3653 1338.73 4.91781C1346.32 7.41096 1352.51 10.8242 1357.33 15.1575L1345.68 32.1644C1343.16 29.8493 1340.18 27.831 1336.75 26.1096C1333.32 24.3881 1329.62 23.0822 1325.65 22.1918C1321.67 21.242 1317.67 20.7671 1313.64 20.7671C1308.89 20.7671 1304.74 21.4201 1301.19 22.726C1297.64 24.032 1294.87 25.9018 1292.88 28.3356C1290.9 30.7694 1289.9 33.7374 1289.9 37.2397C1289.9 39.7922 1290.57 42.0183 1291.89 43.9178C1293.27 45.8173 1295.62 47.5685 1298.93 49.1712C1302.24 50.7146 1306.81 52.347 1312.65 54.0685L1325.47 57.8082C1337.56 61.3105 1346.38 65.8219 1351.91 71.3425C1357.45 76.8036 1360.22 83.9269 1360.22 92.7123C1360.22 100.251 1358.29 106.9 1354.44 112.658C1350.59 118.416 1345.05 122.927 1337.83 126.192C1330.67 129.397 1322.1 131 1312.11 131Z" fill="#0073E5"/>
<path d="M1384.01 128.329V3.67123H1407.48V63.952L1456.58 3.67123H1485.64L1439.25 60.3904L1492.32 128.329H1462.09L1423.82 78.0205L1407.48 96.8973V128.329H1384.01Z" fill="#0073E5"/>
<path d="M1540.71 128.329V75.0822L1496.21 3.67123H1522.84L1552.98 52.8219L1582.86 3.67123H1608.76L1564.26 75.2603V128.329H1540.71Z" fill="#0073E5"/>
<path d="M1625.17 128.329V3.67123H1674.09C1683.06 3.67123 1690.85 5.18493 1697.47 8.21233C1704.09 11.1804 1709.2 15.4543 1712.81 21.0342C1716.42 26.6142 1718.23 33.2626 1718.23 40.9795C1718.23 47.153 1716.93 52.5845 1714.35 57.274C1711.76 61.9635 1708.18 65.8516 1703.61 68.9383C1699.09 72.0251 1693.86 74.1918 1687.9 75.4384L1724.64 128.329H1696.48L1663.8 79.5342H1648.64V128.329H1625.17ZM1648.64 60.5685H1670.66C1678.18 60.5685 1684.05 59.0251 1688.26 55.9384C1692.47 52.7922 1694.58 48.2215 1694.58 42.226C1694.58 35.9931 1692.66 31.2443 1688.8 27.9794C1684.95 24.7146 1679.3 23.0822 1671.84 23.0822H1648.64V60.5685Z" fill="#0073E5"/>
<path d="M1746.46 128.329V3.67123H1830.49V23.9726H1769.92V54.1575H1821.73V73.1233H1769.92V107.849H1831.12V128.329H1746.46Z" fill="#0073E5"/>
<path d="M1921.31 131C1911.38 131 1902.11 129.486 1893.51 126.459C1884.96 123.432 1877.47 119.098 1871.03 113.459C1864.6 107.82 1859.57 101.023 1855.96 93.0685C1852.35 85.0548 1850.55 76.0913 1850.55 66.1781C1850.55 56.2648 1852.26 47.3014 1855.69 39.2877C1859.18 31.274 1864.05 24.4178 1870.31 18.7192C1876.57 13.0205 1883.88 8.65754 1892.24 5.63014C1900.61 2.54338 1909.69 1 1919.5 1C1924.02 1 1928.65 1.35616 1933.4 2.06849C1938.16 2.78082 1942.88 3.96804 1947.57 5.63014C1952.33 7.29224 1956.87 9.57763 1961.2 12.4863L1951.18 30.5616C1946.67 27.7123 1941.83 25.605 1936.65 24.2397C1931.48 22.8151 1926.09 22.1027 1920.5 22.1027C1913.46 22.1027 1907.11 23.1119 1901.45 25.1301C1895.79 27.1484 1890.98 30.0868 1887.01 33.9452C1883.04 37.7443 1880 42.3744 1877.89 47.8356C1875.79 53.2374 1874.73 59.3516 1874.73 66.1781C1874.73 75.7352 1876.78 83.8379 1880.87 90.4863C1885.02 97.1347 1890.68 102.18 1897.84 105.623C1905.06 109.007 1913.31 110.699 1922.57 110.699C1926.84 110.699 1930.75 110.313 1934.31 109.541C1937.86 108.71 1940.8 107.79 1943.15 106.781V79.3562H1915.44V60.4795H1964V120.493C1960.51 122.63 1956.24 124.5 1951.18 126.103C1946.19 127.705 1941.01 128.922 1935.66 129.753C1930.36 130.584 1925.58 131 1921.31 131Z" fill="#0073E5"/>
<path d="M325.108 286C316.082 286 307.267 284.724 298.662 282.171C290.118 279.559 282.897 275.849 277 271.041L288.373 253.5C291.261 256.112 294.721 258.368 298.752 260.267C302.784 262.167 307.056 263.651 311.569 264.719C316.142 265.728 320.685 266.233 325.198 266.233C332.719 266.233 338.827 264.868 343.52 262.137C348.214 259.347 350.56 255.34 350.56 250.116C350.56 246.021 348.936 242.607 345.686 239.877C342.437 237.087 336.45 234.475 327.725 232.041L315.45 228.568C303.115 225.126 294.179 220.525 288.643 214.767C283.168 208.95 280.43 201.826 280.43 193.397C280.43 187.877 281.573 182.831 283.86 178.26C286.146 173.689 289.365 169.742 293.517 166.418C297.729 163.094 302.693 160.541 308.41 158.76C314.126 156.979 320.354 156.089 327.093 156.089C335.939 156.089 344.152 157.365 351.734 159.918C359.315 162.411 365.513 165.824 370.327 170.158L358.684 187.164C356.156 184.849 353.178 182.831 349.748 181.11C346.318 179.388 342.618 178.082 338.646 177.192C334.675 176.242 330.674 175.767 326.642 175.767C321.888 175.767 317.737 176.42 314.186 177.726C310.636 179.032 307.868 180.902 305.883 183.336C303.897 185.769 302.904 188.737 302.904 192.24C302.904 194.792 303.566 197.018 304.89 198.918C306.274 200.817 308.62 202.568 311.93 204.171C315.239 205.715 319.812 207.347 325.649 209.068L338.466 212.808C350.56 216.311 359.376 220.822 364.911 226.342C370.447 231.804 373.215 238.927 373.215 247.712C373.215 255.251 371.29 261.9 367.439 267.658C363.588 273.416 358.052 277.927 350.831 281.192C343.671 284.397 335.096 286 325.108 286Z" fill="#0073E5"/>
<path d="M397.014 283.329V158.671H420.481V218.952L469.581 158.671H498.644L452.252 215.39L505.324 283.329H475.087L436.818 233.021L420.481 251.897V283.329H397.014Z" fill="#0073E5"/>
<path d="M553.708 283.329V230.082L509.21 158.671H535.836L565.983 207.822L595.858 158.671H621.762L577.265 230.26V283.329H553.708Z" fill="#0073E5"/>
<path d="M638.172 283.329V158.671H687.092C696.058 158.671 703.85 160.185 710.469 163.212C717.088 166.18 722.203 170.454 725.813 176.034C729.423 181.614 731.228 188.263 731.228 195.979C731.228 202.153 729.935 207.584 727.347 212.274C724.76 216.963 721.18 220.852 716.607 223.938C712.094 227.025 706.859 229.192 700.902 230.438L737.637 283.329H709.476L676.803 234.534H661.639V283.329H638.172ZM661.639 215.568H683.662C691.184 215.568 697.051 214.025 701.263 210.938C705.475 207.792 707.581 203.221 707.581 197.226C707.581 190.993 705.655 186.244 701.804 182.979C697.953 179.715 692.297 178.082 684.836 178.082H661.639V215.568Z" fill="#0073E5"/>
<path d="M759.457 283.329V158.671H843.487V178.973H782.924V209.158H834.732V228.123H782.924V262.849H844.119V283.329H759.457Z" fill="#0073E5"/>
<path d="M934.308 286C924.38 286 915.113 284.486 906.508 281.459C897.964 278.432 890.473 274.098 884.034 268.459C877.596 262.82 872.571 256.023 868.961 248.068C865.351 240.055 863.546 231.091 863.546 221.178C863.546 211.265 865.26 202.301 868.69 194.288C872.18 186.274 877.054 179.418 883.312 173.719C889.57 168.021 896.881 163.658 905.245 160.63C913.609 157.543 922.695 156 932.503 156C937.016 156 941.649 156.356 946.403 157.068C951.156 157.781 955.88 158.968 960.573 160.63C965.327 162.292 969.87 164.578 974.202 167.486L964.183 185.562C959.67 182.712 954.827 180.605 949.652 179.24C944.477 177.815 939.092 177.103 933.496 177.103C926.455 177.103 920.107 178.112 914.451 180.13C908.795 182.148 903.981 185.087 900.01 188.945C896.038 192.744 893 197.374 890.894 202.836C888.788 208.237 887.735 214.352 887.735 221.178C887.735 230.735 889.781 238.838 893.872 245.486C898.024 252.135 903.68 257.18 910.841 260.623C918.061 264.007 926.305 265.699 935.572 265.699C939.844 265.699 943.755 265.313 947.305 264.541C950.855 263.71 953.804 262.79 956.15 261.781V234.356H928.441V215.479H977V275.493C973.51 277.63 969.238 279.5 964.183 281.103C959.189 282.705 954.014 283.922 948.659 284.753C943.364 285.584 938.58 286 934.308 286Z" fill="#0073E5"/>
<mask id="path-12-outside-4_117_1570" maskUnits="userSpaceOnUse" x="1055" y="155" width="703" height="132" fill="black">
<rect fill="white" x="1055" y="155" width="703" height="132"/>
<path d="M1105.11 286C1096.08 286 1087.27 284.724 1078.66 282.171C1070.12 279.559 1062.9 275.849 1057 271.041L1068.37 253.5C1071.26 256.112 1074.72 258.368 1078.75 260.267C1082.78 262.167 1087.06 263.651 1091.57 264.719C1096.14 265.728 1100.68 266.233 1105.2 266.233C1112.72 266.233 1118.83 264.868 1123.52 262.137C1128.21 259.347 1130.56 255.34 1130.56 250.116C1130.56 246.021 1128.94 242.607 1125.69 239.877C1122.44 237.087 1116.45 234.475 1107.73 232.041L1095.45 228.568C1083.11 225.126 1074.18 220.525 1068.64 214.767C1063.17 208.95 1060.43 201.826 1060.43 193.397C1060.43 187.877 1061.57 182.831 1063.86 178.26C1066.15 173.689 1069.37 169.742 1073.52 166.418C1077.73 163.094 1082.69 160.541 1088.41 158.76C1094.13 156.979 1100.35 156.089 1107.09 156.089C1115.94 156.089 1124.15 157.365 1131.73 159.918C1139.32 162.411 1145.51 165.824 1150.33 170.158L1138.68 187.164C1136.16 184.849 1133.18 182.831 1129.75 181.11C1126.32 179.388 1122.62 178.082 1118.65 177.192C1114.67 176.242 1110.67 175.767 1106.64 175.767C1101.89 175.767 1097.74 176.42 1094.19 177.726C1090.64 179.032 1087.87 180.902 1085.88 183.336C1083.9 185.769 1082.9 188.737 1082.9 192.24C1082.9 194.792 1083.57 197.018 1084.89 198.918C1086.27 200.817 1088.62 202.568 1091.93 204.171C1095.24 205.715 1099.81 207.347 1105.65 209.068L1118.47 212.808C1130.56 216.311 1139.38 220.822 1144.91 226.342C1150.45 231.804 1153.22 238.927 1153.22 247.712C1153.22 255.251 1151.29 261.9 1147.44 267.658C1143.59 273.416 1138.05 277.927 1130.83 281.192C1123.67 284.397 1115.1 286 1105.11 286Z"/>
<path d="M1177.01 283.329V158.671H1200.48V218.952L1249.58 158.671H1278.64L1232.25 215.39L1285.32 283.329H1255.09L1216.82 233.021L1200.48 251.897V283.329H1177.01Z"/>
<path d="M1333.71 283.329V230.082L1289.21 158.671H1315.84L1345.98 207.822L1375.86 158.671H1401.76L1357.26 230.26V283.329H1333.71Z"/>
<path d="M1418.17 283.329V158.671H1467.09C1476.06 158.671 1483.85 160.185 1490.47 163.212C1497.09 166.18 1502.2 170.454 1505.81 176.034C1509.42 181.614 1511.23 188.263 1511.23 195.979C1511.23 202.153 1509.93 207.584 1507.35 212.274C1504.76 216.963 1501.18 220.852 1496.61 223.938C1492.09 227.025 1486.86 229.192 1480.9 230.438L1517.64 283.329H1489.48L1456.8 234.534H1441.64V283.329H1418.17ZM1441.64 215.568H1463.66C1471.18 215.568 1477.05 214.025 1481.26 210.938C1485.47 207.792 1487.58 203.221 1487.58 197.226C1487.58 190.993 1485.66 186.244 1481.8 182.979C1477.95 179.715 1472.3 178.082 1464.84 178.082H1441.64V215.568Z"/>
<path d="M1539.46 283.329V158.671H1623.49V178.973H1562.92V209.158H1614.73V228.123H1562.92V262.849H1624.12V283.329H1539.46Z"/>
<path d="M1714.31 286C1704.38 286 1695.11 284.486 1686.51 281.459C1677.96 278.432 1670.47 274.098 1664.03 268.459C1657.6 262.82 1652.57 256.023 1648.96 248.068C1645.35 240.055 1643.55 231.091 1643.55 221.178C1643.55 211.265 1645.26 202.301 1648.69 194.288C1652.18 186.274 1657.05 179.418 1663.31 173.719C1669.57 168.021 1676.88 163.658 1685.24 160.63C1693.61 157.543 1702.69 156 1712.5 156C1717.02 156 1721.65 156.356 1726.4 157.068C1731.16 157.781 1735.88 158.968 1740.57 160.63C1745.33 162.292 1749.87 164.578 1754.2 167.486L1744.18 185.562C1739.67 182.712 1734.83 180.605 1729.65 179.24C1724.48 177.815 1719.09 177.103 1713.5 177.103C1706.46 177.103 1700.11 178.112 1694.45 180.13C1688.79 182.148 1683.98 185.087 1680.01 188.945C1676.04 192.744 1673 197.374 1670.89 202.836C1668.79 208.237 1667.73 214.352 1667.73 221.178C1667.73 230.735 1669.78 238.838 1673.87 245.486C1678.02 252.135 1683.68 257.18 1690.84 260.623C1698.06 264.007 1706.31 265.699 1715.57 265.699C1719.84 265.699 1723.75 265.313 1727.31 264.541C1730.86 263.71 1733.8 262.79 1736.15 261.781V234.356H1708.44V215.479H1757V275.493C1753.51 277.63 1749.24 279.5 1744.18 281.103C1739.19 282.705 1734.01 283.922 1728.66 284.753C1723.36 285.584 1718.58 286 1714.31 286Z"/>
</mask>
<path d="M1105.11 286C1096.08 286 1087.27 284.724 1078.66 282.171C1070.12 279.559 1062.9 275.849 1057 271.041L1068.37 253.5C1071.26 256.112 1074.72 258.368 1078.75 260.267C1082.78 262.167 1087.06 263.651 1091.57 264.719C1096.14 265.728 1100.68 266.233 1105.2 266.233C1112.72 266.233 1118.83 264.868 1123.52 262.137C1128.21 259.347 1130.56 255.34 1130.56 250.116C1130.56 246.021 1128.94 242.607 1125.69 239.877C1122.44 237.087 1116.45 234.475 1107.73 232.041L1095.45 228.568C1083.11 225.126 1074.18 220.525 1068.64 214.767C1063.17 208.95 1060.43 201.826 1060.43 193.397C1060.43 187.877 1061.57 182.831 1063.86 178.26C1066.15 173.689 1069.37 169.742 1073.52 166.418C1077.73 163.094 1082.69 160.541 1088.41 158.76C1094.13 156.979 1100.35 156.089 1107.09 156.089C1115.94 156.089 1124.15 157.365 1131.73 159.918C1139.32 162.411 1145.51 165.824 1150.33 170.158L1138.68 187.164C1136.16 184.849 1133.18 182.831 1129.75 181.11C1126.32 179.388 1122.62 178.082 1118.65 177.192C1114.67 176.242 1110.67 175.767 1106.64 175.767C1101.89 175.767 1097.74 176.42 1094.19 177.726C1090.64 179.032 1087.87 180.902 1085.88 183.336C1083.9 185.769 1082.9 188.737 1082.9 192.24C1082.9 194.792 1083.57 197.018 1084.89 198.918C1086.27 200.817 1088.62 202.568 1091.93 204.171C1095.24 205.715 1099.81 207.347 1105.65 209.068L1118.47 212.808C1130.56 216.311 1139.38 220.822 1144.91 226.342C1150.45 231.804 1153.22 238.927 1153.22 247.712C1153.22 255.251 1151.29 261.9 1147.44 267.658C1143.59 273.416 1138.05 277.927 1130.83 281.192C1123.67 284.397 1115.1 286 1105.11 286Z" stroke="#2F353F" stroke-width="2" stroke-dasharray="5.52 5.52" mask="url(#path-12-outside-4_117_1570)"/>
<path d="M1177.01 283.329V158.671H1200.48V218.952L1249.58 158.671H1278.64L1232.25 215.39L1285.32 283.329H1255.09L1216.82 233.021L1200.48 251.897V283.329H1177.01Z" stroke="#2F353F" stroke-width="2" stroke-dasharray="5.52 5.52" mask="url(#path-12-outside-4_117_1570)"/>
<path d="M1333.71 283.329V230.082L1289.21 158.671H1315.84L1345.98 207.822L1375.86 158.671H1401.76L1357.26 230.26V283.329H1333.71Z" stroke="#2F353F" stroke-width="2" stroke-dasharray="5.52 5.52" mask="url(#path-12-outside-4_117_1570)"/>
<path d="M1418.17 283.329V158.671H1467.09C1476.06 158.671 1483.85 160.185 1490.47 163.212C1497.09 166.18 1502.2 170.454 1505.81 176.034C1509.42 181.614 1511.23 188.263 1511.23 195.979C1511.23 202.153 1509.93 207.584 1507.35 212.274C1504.76 216.963 1501.18 220.852 1496.61 223.938C1492.09 227.025 1486.86 229.192 1480.9 230.438L1517.64 283.329H1489.48L1456.8 234.534H1441.64V283.329H1418.17ZM1441.64 215.568H1463.66C1471.18 215.568 1477.05 214.025 1481.26 210.938C1485.47 207.792 1487.58 203.221 1487.58 197.226C1487.58 190.993 1485.66 186.244 1481.8 182.979C1477.95 179.715 1472.3 178.082 1464.84 178.082H1441.64V215.568Z" stroke="#2F353F" stroke-width="2" stroke-dasharray="5.52 5.52" mask="url(#path-12-outside-4_117_1570)"/>
<path d="M1539.46 283.329V158.671H1623.49V178.973H1562.92V209.158H1614.73V228.123H1562.92V262.849H1624.12V283.329H1539.46Z" stroke="#2F353F" stroke-width="2" stroke-dasharray="5.52 5.52" mask="url(#path-12-outside-4_117_1570)"/>
<path d="M1714.31 286C1704.38 286 1695.11 284.486 1686.51 281.459C1677.96 278.432 1670.47 274.098 1664.03 268.459C1657.6 262.82 1652.57 256.023 1648.96 248.068C1645.35 240.055 1643.55 231.091 1643.55 221.178C1643.55 211.265 1645.26 202.301 1648.69 194.288C1652.18 186.274 1657.05 179.418 1663.31 173.719C1669.57 168.021 1676.88 163.658 1685.24 160.63C1693.61 157.543 1702.69 156 1712.5 156C1717.02 156 1721.65 156.356 1726.4 157.068C1731.16 157.781 1735.88 158.968 1740.57 160.63C1745.33 162.292 1749.87 164.578 1754.2 167.486L1744.18 185.562C1739.67 182.712 1734.83 180.605 1729.65 179.24C1724.48 177.815 1719.09 177.103 1713.5 177.103C1706.46 177.103 1700.11 178.112 1694.45 180.13C1688.79 182.148 1683.98 185.087 1680.01 188.945C1676.04 192.744 1673 197.374 1670.89 202.836C1668.79 208.237 1667.73 214.352 1667.73 221.178C1667.73 230.735 1669.78 238.838 1673.87 245.486C1678.02 252.135 1683.68 257.18 1690.84 260.623C1698.06 264.007 1706.31 265.699 1715.57 265.699C1719.84 265.699 1723.75 265.313 1727.31 264.541C1730.86 263.71 1733.8 262.79 1736.15 261.781V234.356H1708.44V215.479H1757V275.493C1753.51 277.63 1749.24 279.5 1744.18 281.103C1739.19 282.705 1734.01 283.922 1728.66 284.753C1723.36 285.584 1718.58 286 1714.31 286Z" stroke="#2F353F" stroke-width="2" stroke-dasharray="5.52 5.52" mask="url(#path-12-outside-4_117_1570)"/>
<defs>
<clipPath id="clip0_117_1570">
<rect width="40" height="40" fill="white" transform="translate(927 356)"/>
</clipPath>
<clipPath id="clip1_117_1570">
<rect width="40" height="40" fill="white" transform="translate(720 511)"/>
</clipPath>
<clipPath id="clip2_117_1570">
<rect width="40" height="40" fill="white" transform="translate(997 201)"/>
</clipPath>
<clipPath id="clip3_117_1570">
<rect width="40" height="40" fill="white" transform="translate(1204 46)"/>
</clipPath>
</defs>
</svg>
