<svg width="70" height="70" viewBox="0 0 70 70" fill="none" xmlns="http://www.w3.org/2000/svg">
<path d="M66.2253 16.8785C64.4828 16.6911 49.0724 15.0982 44.8544 16.7103C42.6304 17.5576 40.8048 19.2114 39.7395 21.3441C38.6741 23.4769 38.4469 25.9329 39.1026 28.2259C39.1576 28.4156 39.2248 28.6198 39.3063 28.8457L39.6801 29.8715L43.2919 28.514L42.9298 27.5098C42.43 26.1193 42.4942 24.5876 43.1092 23.2442C43.7242 21.9008 44.8405 20.853 46.2181 20.3262C48.2146 19.5645 55.5002 19.8456 61.9208 20.3646C59.6824 22.7167 55.9845 26.4959 53.0654 28.9178C52.047 29.7574 51.1288 30.7119 50.3284 31.7624L49.2761 33.1486L49.1588 33.3167C47.9822 34.9984 47.438 36.5939 46.3644 39.919L46.1607 40.546C42.7502 51.0812 35.9221 56.8834 25.8611 57.7891L29.3507 48.0636L25.7413 46.7662L20.3752 61.7749L23.1098 61.7628C29.8372 61.739 35.5483 59.9585 40.0827 56.4774C44.4686 53.1139 47.7519 48.1478 49.8203 41.7376L50.024 41.1082C51.4093 36.8219 51.6585 36.0629 53.8299 33.6772C54.7274 32.7018 55.6788 31.7777 56.6796 30.9093C61.2091 26.9524 66.4457 21.2103 67.4501 20.0979L70 17.2773L66.2253 16.8785Z" fill="#B2CBFF"/>
<path d="M50.7093 24.5018C50.811 24.1851 50.8165 23.8455 50.7257 23.5256C50.6347 23.2058 50.4512 22.9202 50.1982 22.7049C49.9453 22.4896 49.6344 22.3544 49.3049 22.3162C48.9751 22.2781 48.6417 22.3388 48.3464 22.4906C48.0514 22.6424 47.8077 22.8786 47.6464 23.1692C47.485 23.4598 47.4134 23.7919 47.4402 24.1234C47.4673 24.4549 47.5914 24.7709 47.7976 25.0316C48.0038 25.2922 48.2821 25.4858 48.598 25.5877C48.8077 25.6555 49.0287 25.6811 49.2485 25.6632C49.4681 25.6453 49.6819 25.5841 49.878 25.4833C50.0744 25.3824 50.2485 25.2438 50.3913 25.0754C50.5337 24.907 50.642 24.7121 50.7093 24.5018Z" fill="#B2CBFF"/>
<path d="M32.8113 38.1652C35.9894 28.2642 30.3573 17.5608 20.2578 14.3054L1.94271 8.3999L0.878603 11.7178C0.0758594 14.2468 -0.180953 16.9182 0.125237 19.5543C0.431426 22.1905 1.2936 24.7312 2.6545 27.0076C5.08674 31.0869 8.92223 34.1349 13.4394 35.5774L31.7544 41.4805L32.8113 38.1652ZM29.2668 36.6443L14.6065 31.9184C10.9807 30.7596 7.90166 28.3136 5.94748 25.04C4.89691 23.2839 4.21929 21.3294 3.95699 19.2987C3.69473 17.268 3.85344 15.205 4.42323 13.2386L19.0834 17.9644C27.0522 20.5328 31.5581 28.8575 29.2668 36.6443Z" fill="#B2CBFF"/>
</svg>
