<svg width="601" height="346" viewBox="0 0 601 346" fill="none" xmlns="http://www.w3.org/2000/svg">
<path d="M74.2533 0.544643H529.763C537.885 0.544643 544.469 7.12846 544.469 15.25V327.784C544.469 328.687 543.737 329.418 542.835 329.418H61.1819C60.2795 329.418 59.548 328.687 59.548 327.784V15.25C59.548 7.12845 66.1318 0.544643 74.2533 0.544643Z" fill="#1A202C" stroke="#4A5568" stroke-width="1.08929"/>
<path d="M61.9812 14.9602C61.9812 8.3426 67.3458 2.97803 73.9634 2.97803H530.053C536.671 2.97803 542.035 8.34262 542.035 14.9602V317.455H61.9812V14.9602Z" fill="black"/>
<rect x="71.5108" y="18.4634" width="458.613" height="285.888" fill="#2F353F"/>
<path d="M278.942 318.901H280.083L281.612 322.632H281.672L283.201 318.901H284.343V324.051H283.448V320.513H283.4L281.977 324.035H281.308L279.885 320.505H279.837V324.051H278.942V318.901ZM286.43 324.128C286.185 324.128 285.964 324.085 285.768 323.998C285.574 323.909 285.42 323.778 285.306 323.606C285.193 323.433 285.137 323.22 285.137 322.967C285.137 322.749 285.177 322.569 285.258 322.426C285.338 322.284 285.448 322.17 285.587 322.084C285.726 321.999 285.883 321.934 286.057 321.891C286.233 321.845 286.415 321.813 286.603 321.793C286.829 321.769 287.013 321.748 287.154 321.73C287.294 321.71 287.397 321.68 287.46 321.639C287.526 321.597 287.558 321.533 287.558 321.446V321.431C287.558 321.241 287.502 321.095 287.39 320.991C287.278 320.887 287.116 320.835 286.905 320.835C286.682 320.835 286.505 320.883 286.374 320.981C286.245 321.078 286.158 321.193 286.113 321.325L285.263 321.204C285.33 320.97 285.441 320.774 285.595 320.616C285.749 320.457 285.938 320.338 286.161 320.259C286.383 320.178 286.63 320.138 286.9 320.138C287.086 320.138 287.271 320.16 287.455 320.204C287.64 320.247 287.808 320.319 287.961 320.42C288.113 320.519 288.236 320.654 288.328 320.825C288.422 320.996 288.469 321.209 288.469 321.466V324.051H287.594V323.52H287.564C287.508 323.627 287.43 323.728 287.33 323.822C287.231 323.914 287.106 323.989 286.955 324.046C286.806 324.101 286.631 324.128 286.43 324.128ZM286.666 323.46C286.849 323.46 287.007 323.424 287.141 323.352C287.275 323.278 287.378 323.181 287.45 323.06C287.524 322.939 287.561 322.808 287.561 322.665V322.21C287.532 322.234 287.484 322.255 287.415 322.275C287.348 322.296 287.273 322.313 287.189 322.328C287.105 322.343 287.022 322.357 286.94 322.368C286.858 322.38 286.787 322.39 286.726 322.399C286.59 322.417 286.469 322.447 286.362 322.489C286.254 322.531 286.17 322.59 286.108 322.665C286.046 322.739 286.015 322.834 286.015 322.952C286.015 323.119 286.076 323.246 286.198 323.331C286.321 323.417 286.476 323.46 286.666 323.46ZM291.068 324.126C290.683 324.126 290.352 324.041 290.075 323.872C289.8 323.703 289.588 323.469 289.439 323.171C289.292 322.87 289.218 322.525 289.218 322.135C289.218 321.742 289.293 321.396 289.444 321.096C289.595 320.794 289.808 320.56 290.083 320.392C290.359 320.223 290.686 320.138 291.063 320.138C291.377 320.138 291.654 320.196 291.896 320.312C292.139 320.426 292.332 320.587 292.477 320.797C292.621 321.005 292.703 321.248 292.723 321.526H291.853C291.818 321.34 291.734 321.185 291.602 321.061C291.471 320.935 291.296 320.872 291.076 320.872C290.89 320.872 290.727 320.923 290.586 321.023C290.445 321.122 290.335 321.265 290.256 321.451C290.179 321.637 290.141 321.86 290.141 322.12C290.141 322.383 290.179 322.609 290.256 322.798C290.333 322.986 290.442 323.131 290.581 323.233C290.722 323.334 290.887 323.384 291.076 323.384C291.21 323.384 291.33 323.359 291.436 323.309C291.543 323.257 291.633 323.182 291.705 323.085C291.777 322.988 291.826 322.87 291.853 322.731H292.723C292.701 323.004 292.621 323.246 292.482 323.457C292.342 323.667 292.153 323.831 291.913 323.95C291.674 324.067 291.392 324.126 291.068 324.126ZM293.511 324.051V318.901H295.482C295.854 318.901 296.163 318.96 296.41 319.077C296.658 319.193 296.843 319.351 296.965 319.552C297.089 319.754 297.151 319.982 297.151 320.236C297.151 320.446 297.111 320.625 297.031 320.774C296.95 320.922 296.842 321.042 296.706 321.134C296.57 321.226 296.419 321.292 296.251 321.333V321.383C296.434 321.393 296.609 321.449 296.777 321.551C296.946 321.652 297.084 321.794 297.192 321.979C297.299 322.163 297.352 322.386 297.352 322.648C297.352 322.914 297.288 323.154 297.159 323.367C297.03 323.578 296.835 323.745 296.575 323.867C296.316 323.989 295.989 324.051 295.595 324.051H293.511ZM294.443 323.271H295.447C295.785 323.271 296.029 323.207 296.178 323.077C296.329 322.947 296.405 322.779 296.405 322.575C296.405 322.422 296.367 322.285 296.291 322.162C296.216 322.038 296.109 321.941 295.97 321.871C295.83 321.799 295.664 321.762 295.472 321.762H294.443V323.271ZM294.443 321.091H295.366C295.527 321.091 295.672 321.062 295.801 321.003C295.93 320.943 296.032 320.858 296.105 320.749C296.181 320.639 296.218 320.508 296.218 320.357C296.218 320.158 296.148 319.993 296.007 319.864C295.868 319.735 295.661 319.671 295.386 319.671H294.443V321.091ZM299.808 324.126C299.431 324.126 299.104 324.043 298.828 323.877C298.551 323.711 298.337 323.479 298.184 323.181C298.033 322.882 297.958 322.534 297.958 322.135C297.958 321.736 298.033 321.386 298.184 321.086C298.337 320.786 298.551 320.553 298.828 320.387C299.104 320.221 299.431 320.138 299.808 320.138C300.185 320.138 300.512 320.221 300.789 320.387C301.065 320.553 301.279 320.786 301.43 321.086C301.583 321.386 301.659 321.736 301.659 322.135C301.659 322.534 301.583 322.882 301.43 323.181C301.279 323.479 301.065 323.711 300.789 323.877C300.512 324.043 300.185 324.126 299.808 324.126ZM299.813 323.397C300.018 323.397 300.189 323.341 300.326 323.228C300.464 323.114 300.566 322.962 300.633 322.771C300.702 322.58 300.736 322.367 300.736 322.132C300.736 321.896 300.702 321.682 300.633 321.491C300.566 321.298 300.464 321.145 300.326 321.031C300.189 320.917 300.018 320.86 299.813 320.86C299.604 320.86 299.429 320.917 299.29 321.031C299.153 321.145 299.05 321.298 298.981 321.491C298.914 321.682 298.881 321.896 298.881 322.132C298.881 322.367 298.914 322.58 298.981 322.771C299.05 322.962 299.153 323.114 299.29 323.228C299.429 323.341 299.604 323.397 299.813 323.397ZM304.116 324.126C303.739 324.126 303.412 324.043 303.135 323.877C302.859 323.711 302.644 323.479 302.492 323.181C302.341 322.882 302.265 322.534 302.265 322.135C302.265 321.736 302.341 321.386 302.492 321.086C302.644 320.786 302.859 320.553 303.135 320.387C303.412 320.221 303.739 320.138 304.116 320.138C304.493 320.138 304.82 320.221 305.097 320.387C305.373 320.553 305.587 320.786 305.738 321.086C305.89 321.386 305.967 321.736 305.967 322.135C305.967 322.534 305.89 322.882 305.738 323.181C305.587 323.479 305.373 323.711 305.097 323.877C304.82 324.043 304.493 324.126 304.116 324.126ZM304.121 323.397C304.326 323.397 304.496 323.341 304.634 323.228C304.771 323.114 304.874 322.962 304.941 322.771C305.009 322.58 305.044 322.367 305.044 322.132C305.044 321.896 305.009 321.682 304.941 321.491C304.874 321.298 304.771 321.145 304.634 321.031C304.496 320.917 304.326 320.86 304.121 320.86C303.911 320.86 303.737 320.917 303.598 321.031C303.461 321.145 303.357 321.298 303.289 321.491C303.222 321.682 303.188 321.896 303.188 322.132C303.188 322.367 303.222 322.58 303.289 322.771C303.357 322.962 303.461 323.114 303.598 323.228C303.737 323.341 303.911 323.397 304.121 323.397ZM307.569 322.839L307.566 321.74H307.712L309.1 320.189H310.164L308.456 322.089H308.268L307.569 322.839ZM306.739 324.051V318.901H307.649V324.051H306.739ZM309.163 324.051L307.906 322.293L308.519 321.652L310.252 324.051H309.163ZM312.567 324.051V318.901H314.498C314.893 318.901 315.225 318.975 315.493 319.122C315.763 319.27 315.967 319.473 316.104 319.731C316.243 319.987 316.313 320.279 316.313 320.606C316.313 320.936 316.243 321.229 316.104 321.486C315.965 321.742 315.76 321.944 315.488 322.092C315.217 322.238 314.882 322.311 314.485 322.311H313.205V321.544H314.359C314.591 321.544 314.78 321.504 314.928 321.423C315.075 321.343 315.184 321.232 315.254 321.091C315.327 320.95 315.363 320.789 315.363 320.606C315.363 320.423 315.327 320.262 315.254 320.123C315.184 319.984 315.074 319.876 314.925 319.799C314.778 319.72 314.587 319.681 314.354 319.681H313.499V324.051H312.567ZM317.083 324.051V320.189H317.966V320.832H318.006C318.076 320.609 318.197 320.437 318.368 320.317C318.54 320.194 318.737 320.133 318.959 320.133C319.009 320.133 319.065 320.136 319.127 320.141C319.191 320.144 319.244 320.15 319.286 320.158V320.996C319.247 320.982 319.186 320.97 319.102 320.96C319.02 320.949 318.94 320.943 318.863 320.943C318.697 320.943 318.548 320.979 318.416 321.051C318.285 321.121 318.182 321.219 318.106 321.345C318.031 321.471 317.993 321.616 317.993 321.78V324.051H317.083ZM321.416 324.126C321.039 324.126 320.712 324.043 320.435 323.877C320.159 323.711 319.944 323.479 319.792 323.181C319.641 322.882 319.565 322.534 319.565 322.135C319.565 321.736 319.641 321.386 319.792 321.086C319.944 320.786 320.159 320.553 320.435 320.387C320.712 320.221 321.039 320.138 321.416 320.138C321.793 320.138 322.12 320.221 322.396 320.387C322.673 320.553 322.887 320.786 323.038 321.086C323.19 321.386 323.266 321.736 323.266 322.135C323.266 322.534 323.19 322.882 323.038 323.181C322.887 323.479 322.673 323.711 322.396 323.877C322.12 324.043 321.793 324.126 321.416 324.126ZM321.421 323.397C321.625 323.397 321.796 323.341 321.934 323.228C322.071 323.114 322.173 322.962 322.241 322.771C322.309 322.58 322.344 322.367 322.344 322.132C322.344 321.896 322.309 321.682 322.241 321.491C322.173 321.298 322.071 321.145 321.934 321.031C321.796 320.917 321.625 320.86 321.421 320.86C321.211 320.86 321.037 320.917 320.898 321.031C320.76 321.145 320.657 321.298 320.589 321.491C320.522 321.682 320.488 321.896 320.488 322.132C320.488 322.367 320.522 322.58 320.589 322.771C320.657 322.962 320.76 323.114 320.898 323.228C321.037 323.341 321.211 323.397 321.421 323.397Z" fill="#A0AEC0"/>
<path d="M0.634521 328.67C0.634521 328.068 1.12221 327.58 1.72381 327.58H599.911C600.512 327.58 601 328.068 601 328.67V338.301H0.634521V328.67Z" fill="#A3ACB1"/>
<path d="M0.634521 328.67C0.634521 328.068 1.12221 327.58 1.72381 327.58H599.911C600.512 327.58 601 328.068 601 328.67V338.301H0.634521V328.67Z" fill="url(#paint0_linear_331_67)"/>
<path d="M0.634552 338.301H601L586.882 341.149C572.704 344.008 558.276 345.448 543.812 345.448H56.7116C40.8163 345.448 24.9686 343.709 9.4518 340.261L0.634552 338.301Z" fill="#647279"/>
<path d="M0.634552 338.301H601L586.882 341.149C572.704 344.008 558.276 345.448 543.812 345.448H56.7116C40.8163 345.448 24.9686 343.709 9.4518 340.261L0.634552 338.301Z" fill="url(#paint1_linear_331_67)"/>
<path fill-rule="evenodd" clip-rule="evenodd" d="M251.402 327.58C251.708 332.237 255.582 335.919 260.316 335.919H341.914C346.648 335.919 350.522 332.237 350.828 327.58H251.402Z" fill="#96A1A8"/>
<path fill-rule="evenodd" clip-rule="evenodd" d="M251.402 327.58C251.708 332.237 255.582 335.919 260.316 335.919H341.914C346.648 335.919 350.522 332.237 350.828 327.58H251.402Z" fill="url(#paint2_linear_331_67)"/>
<defs>
<linearGradient id="paint0_linear_331_67" x1="0.634521" y1="332.941" x2="601" y2="332.941" gradientUnits="userSpaceOnUse">
<stop stop-color="#0D1012"/>
<stop offset="0.0295345" stop-color="#CAD4DB"/>
<stop offset="0.0625" stop-color="#242729"/>
<stop offset="0.133609" stop-color="#A3ACB1"/>
<stop offset="0.865967" stop-color="#A3ACB1"/>
<stop offset="0.941937" stop-color="#242729"/>
<stop offset="0.971275" stop-color="#CAD4DB"/>
<stop offset="0.996436" stop-color="#0D1012"/>
</linearGradient>
<linearGradient id="paint1_linear_331_67" x1="300.817" y1="338.301" x2="300.817" y2="345.448" gradientUnits="userSpaceOnUse">
<stop stop-color="#7A7F83"/>
<stop offset="1" stop-color="#0B0B0E"/>
</linearGradient>
<linearGradient id="paint2_linear_331_67" x1="261.21" y1="332.643" x2="342.807" y2="332.643" gradientUnits="userSpaceOnUse">
<stop stop-color="#3C3C3C"/>
<stop offset="0.317518" stop-color="#3C3C3C" stop-opacity="0"/>
<stop offset="0.660584" stop-color="#3C3C3C" stop-opacity="0"/>
<stop offset="1" stop-color="#444444"/>
</linearGradient>
</defs>
</svg>
